<svg id="svg" xmlns="http://www.w3.org/2000/svg" xmlns:xlink="http://www.w3.org/1999/xlink" width="400" height="400" viewBox="0, 0, 400,400"><g id="svgg"><path id="path0" d="M206.916 44.081 C 175.717 98.195,175.731 91.589,206.688 147.668 L 232.126 193.750 290.787 193.750 L 349.449 193.750 374.724 150.472 C 405.577 97.644,405.619 94.454,376.120 43.750 L 352.484 3.125 292.533 1.344 L 232.582 -0.437 206.916 44.081 M356.042 58.088 L 377.060 97.427 355.336 134.651 L 333.613 171.875 292.266 173.713 L 250.919 175.550 228.405 135.291 L 205.891 95.032 228.245 56.891 L 250.599 18.750 292.811 18.750 L 335.024 18.750 356.042 58.088 M41.795 113.840 C -6.452 192.291,-7.136 197.549,23.578 253.740 L 47.157 296.875 108.299 296.875 L 169.440 296.875 195.658 248.438 L 221.875 200.000 195.674 151.562 L 169.474 103.125 110.027 101.340 C 53.885 99.654,50.092 100.349,41.795 113.840 M172.107 159.375 L 194.826 200.000 172.107 240.625 L 149.388 281.250 107.507 281.197 L 65.625 281.145 44.074 240.572 L 22.524 200.000 44.074 159.428 L 65.625 118.855 107.507 118.803 L 149.388 118.750 172.107 159.375 M68.750 140.625 C 68.750 147.997,77.431 150.000,109.375 150.000 C 141.319 150.000,150.000 147.997,150.000 140.625 C 150.000 133.253,141.319 131.250,109.375 131.250 C 77.431 131.250,68.750 133.253,68.750 140.625 M37.500 197.083 C 37.500 213.974,68.631 268.750,78.230 268.750 C 92.080 268.750,89.506 252.288,70.313 218.115 C 53.516 188.209,37.500 177.943,37.500 197.083 M206.688 252.332 C 175.731 308.411,175.717 301.805,206.916 355.919 L 232.582 400.437 292.533 398.656 L 352.484 396.875 376.120 356.250 C 405.619 305.546,405.577 302.356,374.724 249.528 L 349.449 206.250 290.787 206.250 L 232.126 206.250 206.688 252.332 M355.336 265.349 L 377.060 302.573 356.042 341.912 L 335.024 381.250 292.811 381.250 L 250.599 381.250 228.245 343.109 L 205.891 304.968 228.405 264.709 L 250.919 224.450 292.266 226.287 L 333.613 228.125 355.336 265.349 M312.500 247.888 C 312.500 264.002,343.192 312.500,353.388 312.500 C 366.664 312.500,364.617 299.113,346.341 266.412 C 330.299 237.710,312.500 227.967,312.500 247.888 M250.000 359.375 C 250.000 366.747,258.681 368.750,290.625 368.750 C 322.569 368.750,331.250 366.747,331.250 359.375 C 331.250 352.003,322.569 350.000,290.625 350.000 C 258.681 350.000,250.000 352.003,250.000 359.375 " stroke="none" fill="#000000" fill-rule="evenodd"></path></g></svg>