<svg id="svg" version="1.1" xmlns="http://www.w3.org/2000/svg" xmlns:xlink="http://www.w3.org/1999/xlink" width="400" height="400" viewBox="0, 0, 400,400"><g id="svgg"><path id="path0" d="M194.886 15.199 C 192.981 17.104,192.969 17.214,192.969 32.411 C 192.969 46.266,192.840 47.752,191.602 48.205 C 188.404 49.373,128.282 86.288,125.908 88.541 C 119.679 94.452,119.949 92.292,119.700 138.232 C 119.397 194.097,115.116 185.988,158.904 212.500 C 204.269 239.967,195.542 239.916,240.199 212.973 C 285.068 185.902,280.604 194.227,280.300 138.185 C 280.051 92.299,280.324 94.485,274.092 88.520 C 271.604 86.139,212.454 49.770,208.789 48.368 C 207.049 47.702,207.031 47.541,207.031 32.406 C 207.031 14.659,206.525 13.281,200.000 13.281 C 197.648 13.281,196.297 13.788,194.886 15.199 M232.422 79.088 C 248.750 88.953,263.076 98.051,264.258 99.306 L 266.406 101.587 266.406 139.504 C 266.406 170.554,266.207 177.803,265.308 179.531 C 263.958 182.126,202.655 219.552,199.849 219.495 C 197.188 219.440,135.768 181.901,134.582 179.604 C 133.855 178.196,133.614 168.328,133.605 139.661 L 133.594 101.587 135.742 99.295 C 137.562 97.353,195.005 62.024,198.438 60.735 C 200.541 59.945,202.392 60.945,232.422 79.088 M197.659 75.553 C 194.229 76.982,152.367 102.847,150.305 104.811 C 146.875 108.078,146.094 111.578,146.094 123.673 C 146.094 137.714,148.137 141.673,154.646 140.243 C 159.394 139.201,160.087 137.392,160.328 125.432 L 160.547 114.587 182.754 101.138 C 194.968 93.740,205.427 87.051,205.996 86.273 C 209.646 81.282,203.347 73.182,197.659 75.553 M148.116 155.529 C 144.758 159.520,145.370 169.533,149.151 172.436 C 154.647 176.655,160.156 172.072,160.156 163.281 C 160.156 153.447,153.484 149.150,148.116 155.529 M110.056 200.091 C 105.460 200.769,107.889 199.429,72.266 220.938 C 28.578 247.316,32.813 239.547,32.813 293.321 L 32.813 332.453 17.120 340.250 C 0.511 348.502,0.000 348.906,-0.000 353.798 C -0.000 362.359,5.481 362.113,24.267 352.710 L 39.144 345.264 41.252 346.750 C 45.673 349.868,103.400 384.569,105.908 385.618 C 114.777 389.323,116.819 388.488,154.182 365.886 C 198.190 339.263,193.886 347.409,193.581 291.310 C 193.296 238.675,198.027 247.278,155.078 221.295 C 116.733 198.097,118.365 198.866,110.056 200.091 M278.966 201.222 C 272.324 204.104,215.860 238.920,212.485 242.215 C 206.160 248.389,206.250 247.647,206.250 293.359 C 206.250 347.289,201.993 339.531,246.216 366.200 C 291.104 393.269,282.249 393.301,327.546 365.913 C 371.456 339.363,367.188 347.172,367.188 293.397 L 367.188 254.266 382.880 246.469 C 399.445 238.239,400.000 237.802,400.000 233.000 C 400.000 224.275,394.743 224.494,375.733 234.009 L 360.856 241.455 358.748 239.959 C 354.577 236.997,297.976 202.860,294.922 201.464 C 291.072 199.703,282.757 199.577,278.966 201.222 M145.753 232.440 C 162.484 242.547,176.963 251.707,177.930 252.796 L 179.688 254.775 179.687 293.359 L 179.687 331.944 177.930 333.901 C 175.212 336.928,115.648 372.656,113.321 372.656 C 110.473 372.655,49.135 335.279,47.865 332.771 C 46.461 329.996,46.473 256.706,47.878 253.906 C 49.171 251.331,110.365 214.063,113.300 214.063 C 114.572 214.063,126.736 220.951,145.753 232.440 M319.938 233.008 C 341.183 245.907,351.454 252.576,352.122 253.906 C 353.540 256.732,353.538 329.994,352.119 332.813 C 350.842 335.349,289.594 372.656,286.706 372.656 C 284.386 372.656,224.776 336.915,222.070 333.902 L 220.313 331.944 220.313 293.359 L 220.313 254.775 222.070 252.796 C 224.790 249.734,284.311 214.063,286.700 214.063 C 287.977 214.063,300.338 221.108,319.938 233.008 M87.891 242.614 C 58.010 260.690,59.084 259.325,59.514 278.682 L 59.766 289.983 62.055 291.950 C 63.950 293.579,64.891 293.845,67.516 293.493 C 72.868 292.775,73.438 291.372,73.438 278.917 L 73.438 268.164 95.729 254.686 C 107.989 247.273,118.536 240.471,119.166 239.570 C 122.324 235.062,119.060 228.905,113.512 228.907 C 111.054 228.908,106.673 231.252,87.891 242.614 M261.330 242.597 C 230.865 261.072,232.856 258.653,232.830 277.209 L 232.813 289.183 235.096 291.466 C 237.538 293.909,240.325 294.380,243.215 292.841 C 246.519 291.082,246.824 289.901,246.850 278.780 L 246.875 268.107 268.555 255.059 C 295.275 238.978,297.583 236.575,291.832 230.824 C 287.882 226.873,286.170 227.534,261.330 242.597 M62.099 308.014 C 57.434 312.026,58.600 324.103,63.864 326.302 C 69.977 328.857,73.438 325.403,73.438 316.747 C 73.438 307.162,67.978 302.957,62.099 308.014 M235.096 308.534 C 228.858 314.772,234.010 328.838,241.816 326.879 C 248.172 325.283,249.231 310.363,243.215 307.159 C 240.325 305.620,237.538 306.091,235.096 308.534 " stroke="none" fill="#000000" fill-rule="evenodd"></path></g></svg>